<svg width="250" height="114" viewBox="0 0 250 114" fill="none" xmlns="http://www.w3.org/2000/svg">
<path fill-rule="evenodd" clip-rule="evenodd" d="M82.1109 81.8175L0 81.0218V1.45801L82.1109 81.8175ZM17.5357 43.045C14.8693 46.7572 19.0414 52.3319 24.3707 51.0685C25.4618 50.8098 26.6017 50.2643 27.741 49.3576C29.6264 47.8572 29.9799 44.8144 30.1839 41.8675L6.62707 18.8132V74.6133L64.2135 75.1713L39.8028 51.2814L39.6744 51.2649C34.9795 50.6776 29.6467 51.3857 29.8642 57.2631C29.9421 59.367 31.4228 61.0757 33.2789 62.0911C34.1157 62.5491 37.325 63.3899 38.2167 62.9871C38.2838 62.9568 38.2873 63.0621 38.2801 63.153C37.597 71.8025 23.2415 66.2479 24.2588 60.2965L24.537 58.669L23.8208 59.2963C21.2542 61.9848 18.1217 64.0087 14.2619 63.66C14.0874 63.6443 13.9113 63.6237 13.7338 63.598C13.7676 63.5248 13.8161 63.4578 13.8334 63.3814C14.729 59.4513 16.0453 58.0519 20.8277 55.3558C20.8543 55.3409 19.5205 55.1925 18.279 54.779C17.2355 54.4315 16.2906 53.891 15.727 53.5297C10.0977 49.9209 13.3474 44.0668 15.2488 43.3238C16.1558 42.9695 16.9861 42.8036 17.5357 43.045Z" fill="#FBE116"/>
<path fill-rule="evenodd" clip-rule="evenodd" d="M83.8004 80.3585L1.68945 79.5628V-0.000976562L83.8004 80.3585ZM19.2252 41.586C16.5587 45.2982 20.7308 50.8729 26.0602 49.6095C27.1512 49.3508 28.2911 48.8054 29.4304 47.8986C31.3158 46.3982 31.6693 43.3555 31.8733 40.4085L8.31649 17.3542V73.1543L65.9029 73.7123L41.4923 49.8224L41.3638 49.8059C36.6689 49.2186 31.3362 49.9267 31.5537 55.8041C31.6315 57.9081 33.1123 59.6168 34.9683 60.6322C35.8051 61.0901 39.0144 61.9309 39.9061 61.5281C39.9732 61.4978 39.9767 61.6031 39.9696 61.694C39.2864 70.3435 24.9309 64.7889 25.9483 58.8375L26.2265 57.21L25.5103 57.8373C22.9437 60.5258 19.8112 62.5497 15.9513 62.201C15.7769 62.1853 15.6008 62.1647 15.4232 62.139C15.457 62.0659 15.5055 61.9989 15.5229 61.9224C16.4184 57.9923 17.7347 56.5929 22.5172 53.8968C22.5437 53.8819 21.21 53.7335 19.9685 53.32C18.9249 52.9725 17.98 52.432 17.4165 52.0708C11.7871 48.4619 15.0369 42.6078 16.9382 41.8648C17.8453 41.5105 18.6755 41.3446 19.2252 41.586Z" fill="white"/>
<path d="M226.381 50.8125V59.9568H238.913V66.821C237.254 68.1057 235.28 69.2015 232.963 70.0965C230.659 70.9906 228.355 71.4439 226.065 71.4439C221.419 71.4439 217.673 69.8314 214.799 66.6194C211.939 63.4077 210.509 58.5845 210.509 52.1481C210.509 46.1906 211.926 41.6942 214.749 38.6588C217.571 35.6229 221.381 34.1115 226.166 34.1115C229.33 34.1115 231.963 34.8801 234.064 36.4165C236.178 37.9654 237.622 40.069 238.381 42.7269L249.317 40.6862C248.229 35.699 245.786 31.8071 242.001 28.9725C238.203 26.1514 232.925 24.7412 226.178 24.7412C220.989 24.7412 216.66 25.6354 213.166 27.4362C208.597 29.7788 205.129 33.1545 202.749 37.5371C200.382 41.9334 199.193 46.946 199.193 52.589C199.193 57.7906 200.256 62.615 202.382 67.0353C204.509 71.4565 207.685 74.8698 211.901 77.25C216.129 79.6305 221.078 80.8147 226.761 80.8147C231.242 80.8147 235.659 79.9709 240.014 78.2832C244.381 76.5828 247.709 74.6306 250 72.4006V50.8125H226.381Z" fill="white"/>
<path d="M158.691 61.2415L147.982 62.2996C148.704 68.3323 150.894 72.9302 154.578 76.0784C158.261 79.2398 163.539 80.8147 170.412 80.8147C175.134 80.8147 179.083 80.1599 182.248 78.8369C185.411 77.5269 187.855 75.512 189.589 72.8038C191.323 70.0965 192.184 67.1867 192.184 64.0879C192.184 60.6755 191.462 57.8032 190.019 55.473C188.576 53.1428 186.576 51.3169 184.019 49.9696C181.475 48.6337 177.539 47.3239 172.21 46.0768C166.88 44.8173 163.527 43.6087 162.147 42.4368C161.058 41.5301 160.514 40.4344 160.514 39.15C160.514 37.7388 161.096 36.618 162.248 35.7742C164.033 34.4642 166.513 33.8093 169.678 33.8093C172.741 33.8093 175.045 34.4266 176.576 35.6487C178.108 36.8696 179.108 38.8731 179.576 41.6692L190.588 41.2909C190.412 36.2651 188.614 32.2603 185.171 29.2503C181.741 26.2399 176.614 24.7412 169.817 24.7412C165.64 24.7412 162.096 25.3711 159.147 26.6296C156.198 27.8894 153.945 29.7162 152.375 32.1216C150.819 34.5271 150.033 37.1215 150.033 39.88C150.033 44.1748 151.692 47.8148 155.02 50.7999C157.388 52.9284 161.501 54.7176 167.361 56.179C171.919 57.312 174.83 58.0923 176.108 58.5465C177.982 59.2016 179.298 59.982 180.044 60.8761C180.792 61.7835 181.171 62.8666 181.171 64.1513C181.171 66.1412 180.272 67.8792 178.488 69.3655C176.703 70.8516 174.044 71.5953 170.526 71.5953C167.197 71.5953 164.551 70.764 162.589 69.0886C160.628 67.4132 159.337 64.8062 158.691 61.2415Z" fill="white"/>
<path d="M95.4546 24.7412V78.8502H106.467V62.4896L115.315 53.4455L130.276 78.8502H144.478L122.897 45.8132L143.415 24.7412H128.656L106.467 48.7098V24.7412H95.4546Z" fill="white"/>
<path d="M236.17 112.756V91.3145H243.09C244.612 91.3145 245.882 91.6076 246.901 92.1939C247.927 92.7732 248.698 93.5619 249.215 94.56C249.738 95.5581 250 96.6818 250 97.9311C250 99.1805 249.742 100.308 249.225 101.313C248.709 102.311 247.941 103.103 246.922 103.689C245.903 104.269 244.636 104.558 243.122 104.558H237.678V102.799H243.069C244.193 102.799 245.125 102.59 245.865 102.171C246.604 101.745 247.156 101.166 247.519 100.433C247.889 99.7005 248.074 98.8664 248.074 97.9311C248.074 96.9959 247.889 96.1618 247.519 95.4289C247.156 94.6961 246.601 94.1203 245.854 93.7015C245.114 93.2827 244.176 93.0733 243.038 93.0733H238.128V112.756H236.17Z" fill="white"/>
<path d="M228.522 91.3145H230.479V105.511C230.479 106.97 230.138 108.275 229.454 109.427C228.77 110.571 227.817 111.475 226.595 112.138C225.381 112.794 223.968 113.122 222.355 113.122C220.75 113.122 219.337 112.791 218.115 112.128C216.894 111.465 215.941 110.561 215.257 109.416C214.573 108.271 214.231 106.97 214.231 105.511V91.3145H216.189V105.375C216.189 106.513 216.444 107.528 216.953 108.421C217.463 109.308 218.178 110.006 219.099 110.515C220.028 111.025 221.113 111.28 222.355 111.28C223.598 111.28 224.683 111.025 225.611 110.515C226.54 110.006 227.255 109.308 227.757 108.421C228.267 107.528 228.522 106.513 228.522 105.375V91.3145Z" fill="white"/>
<path d="M209.496 102.034C209.496 104.268 209.098 106.212 208.303 107.866C207.507 109.513 206.411 110.79 205.015 111.698C203.626 112.598 202.028 113.048 200.22 113.048C198.413 113.048 196.811 112.598 195.415 111.698C194.026 110.79 192.934 109.513 192.138 107.866C191.349 106.212 190.955 104.268 190.955 102.034C190.955 99.8009 191.349 97.8605 192.138 96.2133C192.934 94.5592 194.029 93.2819 195.425 92.3815C196.821 91.4742 198.42 91.0205 200.22 91.0205C202.028 91.0205 203.626 91.4742 205.015 92.3815C206.411 93.2819 207.507 94.5592 208.303 96.2133C209.098 97.8605 209.496 99.8009 209.496 102.034ZM207.591 102.034C207.591 100.115 207.27 98.4712 206.628 97.1032C205.986 95.7283 205.11 94.6778 204 93.9519C202.89 93.2261 201.63 92.8631 200.22 92.8631C198.817 92.8631 197.561 93.2261 196.451 93.9519C195.342 94.6778 194.462 95.7248 193.813 97.0928C193.171 98.4608 192.85 100.108 192.85 102.034C192.85 103.954 193.171 105.597 193.813 106.965C194.455 108.333 195.331 109.384 196.441 110.117C197.551 110.843 198.811 111.206 200.22 111.206C201.63 111.206 202.89 110.843 204 110.117C205.117 109.391 205.996 108.344 206.638 106.976C207.28 105.601 207.598 103.954 207.591 102.034Z" fill="white"/>
<path d="M173.319 112.756V91.3145H180.24C181.761 91.3145 183.032 91.5901 184.051 92.1415C185.077 92.6859 185.848 93.4432 186.364 94.4134C186.888 95.3766 187.15 96.4829 187.15 97.7322C187.15 98.9816 186.888 100.084 186.364 101.041C185.848 101.997 185.08 102.744 184.061 103.281C183.042 103.818 181.779 104.087 180.271 104.087H174.377V102.297H180.219C181.336 102.297 182.264 102.112 183.004 101.742C183.751 101.372 184.305 100.845 184.668 100.161C185.038 99.4771 185.223 98.6675 185.223 97.7322C185.223 96.7969 185.038 95.9803 184.668 95.2824C184.298 94.5774 183.74 94.033 182.993 93.6491C182.253 93.2653 181.318 93.0733 180.187 93.0733H175.277V112.756H173.319ZM182.773 103.082L188.05 112.756H185.789L180.564 103.082H182.773Z" fill="white"/>
<path d="M166.302 98.0141C166.107 97.3022 165.821 96.6356 165.444 96.0144C165.067 95.3863 164.599 94.8384 164.041 94.3707C163.489 93.8961 162.851 93.5262 162.125 93.261C161.406 92.9957 160.603 92.8631 159.717 92.8631C158.321 92.8631 157.072 93.2261 155.969 93.9519C154.866 94.6778 153.994 95.7248 153.351 97.0928C152.716 98.4608 152.399 100.108 152.399 102.034C152.399 103.954 152.72 105.597 153.362 106.965C154.004 108.333 154.883 109.384 156 110.117C157.124 110.843 158.408 111.206 159.853 111.206C161.172 111.206 162.338 110.912 163.35 110.326C164.362 109.74 165.15 108.902 165.716 107.813C166.288 106.725 166.567 105.43 166.553 103.929L167.182 104.128H160.314V102.369H168.459V104.128C168.459 105.957 168.089 107.538 167.349 108.871C166.609 110.204 165.594 111.233 164.302 111.959C163.011 112.685 161.528 113.048 159.853 113.048C157.982 113.048 156.346 112.598 154.943 111.698C153.54 110.79 152.448 109.513 151.666 107.866C150.891 106.212 150.504 104.268 150.504 102.034C150.504 100.352 150.727 98.8342 151.174 97.4801C151.621 96.1261 152.252 94.9675 153.069 94.0043C153.892 93.0411 154.866 92.3048 155.99 91.7952C157.113 91.2788 158.356 91.0205 159.717 91.0205C160.889 91.0205 161.961 91.2055 162.931 91.5754C163.908 91.9453 164.767 92.4548 165.506 93.1039C166.253 93.746 166.864 94.4894 167.339 95.3339C167.82 96.1715 168.145 97.0649 168.312 98.0141H166.302Z" fill="white"/>
<path d="M146.399 101.155V102.914H137.479V101.155H146.399Z" fill="white"/>
<path d="M119.02 112.756V91.3145H126.254C127.65 91.3145 128.812 91.5587 129.74 92.0473C130.676 92.5359 131.377 93.2024 131.845 94.047C132.312 94.8915 132.546 95.8512 132.546 96.9261C132.546 97.8195 132.396 98.5837 132.096 99.2189C131.796 99.854 131.388 100.367 130.871 100.758C130.355 101.149 129.779 101.431 129.144 101.606V101.773C129.835 101.822 130.505 102.067 131.154 102.506C131.803 102.939 132.337 103.546 132.756 104.328C133.174 105.11 133.384 106.045 133.384 107.134C133.384 108.216 133.143 109.182 132.661 110.034C132.18 110.878 131.44 111.545 130.442 112.033C129.451 112.515 128.187 112.756 126.652 112.756H119.02ZM120.977 110.997H126.652C128.306 110.997 129.527 110.631 130.316 109.898C131.112 109.165 131.51 108.244 131.51 107.134C131.51 106.317 131.311 105.577 130.913 104.914C130.522 104.244 129.967 103.714 129.248 103.323C128.536 102.932 127.699 102.737 126.736 102.737H120.977V110.997ZM120.977 100.999H126.432C127.277 100.999 128.016 100.824 128.652 100.475C129.287 100.126 129.782 99.6446 130.138 99.0304C130.494 98.4162 130.672 97.7148 130.672 96.9261C130.672 95.7884 130.302 94.8636 129.562 94.1517C128.823 93.4328 127.72 93.0733 126.254 93.0733H120.977V100.999Z" fill="white"/>
<path d="M99.7031 112.756H97.6511L105.451 91.3145H107.545L115.344 112.756H113.292L106.571 93.8585H106.424L99.7031 112.756ZM101.179 104.537H111.816V106.296H101.179V104.537Z" fill="white"/>
<path d="M93.9717 91.3145V112.756H92.0662L79.3982 94.8008H79.2307V112.756H77.2729V91.3145H79.1679L91.8778 109.29H92.0453V91.3145H93.9717Z" fill="white"/>
<path d="M70.3733 96.6737C70.2547 95.4802 69.7277 94.531 68.7925 93.826C67.8572 93.1211 66.6811 92.7686 65.2643 92.7686C64.2662 92.7686 63.3867 92.9396 62.626 93.2816C61.8722 93.6236 61.2789 94.0982 60.8462 94.7055C60.4204 95.3057 60.2075 95.9897 60.2075 96.7575C60.2075 97.3228 60.3297 97.8184 60.574 98.2441C60.8182 98.6699 61.1463 99.0363 61.5581 99.3434C61.9769 99.6435 62.4375 99.9018 62.9401 100.118C63.4496 100.335 63.9626 100.516 64.4791 100.663L66.7405 101.312C67.4245 101.5 68.1085 101.741 68.7925 102.034C69.4765 102.327 70.1011 102.697 70.6665 103.144C71.2388 103.584 71.696 104.124 72.038 104.767C72.387 105.402 72.5615 106.166 72.5615 107.059C72.5615 108.204 72.2648 109.234 71.6716 110.148C71.0783 111.062 70.2268 111.788 69.117 112.326C68.0073 112.856 66.6776 113.121 65.1282 113.121C63.6694 113.121 62.4026 112.88 61.3278 112.399C60.2529 111.91 59.4084 111.237 58.7942 110.378C58.18 109.52 57.8345 108.525 57.7577 107.394H59.7678C59.8376 108.239 60.1168 108.954 60.6054 109.541C61.0939 110.127 61.7291 110.574 62.5108 110.881C63.2925 111.181 64.165 111.331 65.1282 111.331C66.196 111.331 67.1453 111.153 67.9758 110.797C68.8134 110.434 69.4695 109.931 69.9441 109.289C70.4257 108.64 70.6665 107.886 70.6665 107.028C70.6665 106.302 70.478 105.695 70.1011 105.206C69.7242 104.711 69.1973 104.295 68.5203 103.96C67.8502 103.625 67.072 103.329 66.1856 103.071L63.6206 102.317C61.9385 101.814 60.6333 101.12 59.705 100.233C58.7767 99.3469 58.3126 98.2162 58.3126 96.8412C58.3126 95.6896 58.6197 94.6776 59.2339 93.8051C59.8551 92.9257 60.6926 92.2417 61.7465 91.7531C62.8074 91.2575 63.9975 91.0098 65.3166 91.0098C66.6497 91.0098 67.8293 91.2541 68.8553 91.7426C69.8813 92.2312 70.6944 92.9047 71.2947 93.7632C71.9019 94.6147 72.2264 95.5849 72.2683 96.6737H70.3733Z" fill="white"/>
<path d="M39.6585 112.756V111.28L51.5623 93.0733H39.5957V91.3145H53.8969V92.7906L41.9827 110.997H54.0016V112.756H39.6585Z" fill="white"/>
<path d="M21.1907 112.756H19.1387L26.9384 91.3145H29.0323L36.832 112.756H34.78L28.0586 93.8585H27.912L21.1907 112.756ZM22.6669 104.537H33.3038V106.296H22.6669V104.537Z" fill="white"/>
<path d="M2.27271 112.756V91.3145H4.23049V102.862H4.41894L14.8884 91.3145H17.4638L8.30309 101.229L17.422 112.756H15.0349L7.08864 102.59L4.23049 105.794V112.756H2.27271Z" fill="white"/>
</svg>
