<svg width="110" height="110" viewBox="0 0 110 110" fill="none" xmlns="http://www.w3.org/2000/svg">
<rect width="110" height="110" rx="55" fill="url(#paint0_linear_8_78)" fill-opacity="0.2"/>
<g clip-path="url(#clip0_8_78)">
<path d="M74.4062 61.75C78.258 61.75 81.1562 58.8517 81.1562 55C81.1562 51.1483 78.258 47.4062 74.4062 47.4062C74.4062 37.7757 66.3181 30.5312 56.6875 30.5312C48.1639 30.5312 40.4875 35.9507 38.9688 44.0312C38.9688 44.0312 37.9858 44.0312 37.2812 44.0312C32.4651 44.0312 28.8438 48.4964 28.8438 53.3125C28.8438 58.1286 32.4651 61.75 37.2812 61.75H74.4062Z" stroke="#DD2B1C" stroke-width="2" stroke-miterlimit="10"/>
<path d="M46.5625 64.2812V68.5" stroke="#DD2B1C" stroke-width="2" stroke-miterlimit="10"/>
<path d="M46.5625 71.875V76.0938" stroke="#DD2B1C" stroke-width="2" stroke-miterlimit="10"/>
<path d="M50.7812 65.9688L48.25 68.5" stroke="#DD2B1C" stroke-width="2" stroke-miterlimit="10"/>
<path d="M44.875 71.875L42.3438 74.4062" stroke="#DD2B1C" stroke-width="2" stroke-miterlimit="10"/>
<path d="M50.7812 74.4062L48.25 71.875" stroke="#DD2B1C" stroke-width="2" stroke-miterlimit="10"/>
<path d="M44.875 68.5L42.3438 65.9688" stroke="#DD2B1C" stroke-width="2" stroke-miterlimit="10"/>
<path d="M52.4688 70.1875H48.25" stroke="#DD2B1C" stroke-width="2" stroke-miterlimit="10"/>
<path d="M44.875 70.1875H40.6562" stroke="#DD2B1C" stroke-width="2" stroke-miterlimit="10"/>
<path d="M63.4375 68.5V72.7188" stroke="#DD2B1C" stroke-width="2" stroke-miterlimit="10"/>
<path d="M63.4375 76.0938V80.3125" stroke="#DD2B1C" stroke-width="2" stroke-miterlimit="10"/>
<path d="M67.6562 70.1875L65.125 72.7188" stroke="#DD2B1C" stroke-width="2" stroke-miterlimit="10"/>
<path d="M61.75 76.0938L59.2188 78.625" stroke="#DD2B1C" stroke-width="2" stroke-miterlimit="10"/>
<path d="M67.6562 78.625L65.125 76.0938" stroke="#DD2B1C" stroke-width="2" stroke-miterlimit="10"/>
<path d="M61.75 72.7188L59.2188 70.1875" stroke="#DD2B1C" stroke-width="2" stroke-miterlimit="10"/>
<path d="M69.3438 74.4062H65.125" stroke="#DD2B1C" stroke-width="2" stroke-miterlimit="10"/>
<path d="M61.75 74.4062H57.5312" stroke="#DD2B1C" stroke-width="2" stroke-miterlimit="10"/>
</g>
<defs>
<linearGradient id="paint0_linear_8_78" x1="21.0294" y1="6.47059" x2="117.549" y2="107.304" gradientUnits="userSpaceOnUse">
<stop stop-color="#DD2B1C"/>
<stop offset="1" stop-color="#FBE116"/>
</linearGradient>
<clipPath id="clip0_8_78">
<rect width="54" height="54" fill="white" transform="translate(28 28)"/>
</clipPath>
</defs>
</svg>
