<svg width="96" height="37" viewBox="0 0 96 37" fill="none" xmlns="http://www.w3.org/2000/svg">
<path fill-rule="evenodd" clip-rule="evenodd" d="M24.2874 24.9052L0 24.6686V1.01023L24.2874 24.9052ZM5.18687 13.3762C4.39815 14.48 5.63223 16.1377 7.20857 15.762C7.53131 15.6851 7.86846 15.5229 8.20546 15.2532C8.76314 14.8071 8.86769 13.9023 8.92803 13.0261L1.96021 6.17083V22.7631L18.9936 22.929L11.7732 15.8253L11.7352 15.8204C10.3465 15.6457 8.76915 15.8563 8.83348 17.604C8.85652 18.2296 9.2945 18.7376 9.84349 19.0396C10.091 19.1757 11.0403 19.4258 11.3041 19.306C11.3239 19.297 11.3249 19.3283 11.3228 19.3553C11.1207 21.9273 6.87455 20.2756 7.17547 18.5059L7.25777 18.022L7.04591 18.2085C6.28674 19.0079 5.3602 19.6098 4.2185 19.5061C4.16689 19.5014 4.11481 19.4953 4.06229 19.4876C4.07228 19.4659 4.08663 19.446 4.09177 19.4232C4.35667 18.2546 4.74601 17.8385 6.1606 17.0368C6.16844 17.0324 5.77394 16.9882 5.40672 16.8653C5.09807 16.762 4.81855 16.6013 4.65187 16.4938C2.98677 15.4207 3.948 13.68 4.5104 13.4591C4.7787 13.3537 5.0243 13.3044 5.18687 13.3762Z" fill="#FBE116"/>
<path fill-rule="evenodd" clip-rule="evenodd" d="M24.7872 24.4715L0.499756 24.2349V0.576485L24.7872 24.4715ZM5.68661 12.9424C4.89791 14.0462 6.13197 15.7039 7.70832 15.3282C8.03105 15.2513 8.3682 15.0891 8.70521 14.8195C9.26288 14.3734 9.36745 13.4686 9.42778 12.5923L2.45995 5.73708V22.3293L19.4933 22.4952L12.273 15.3915L12.235 15.3866C10.8463 15.212 9.2689 15.4225 9.33324 17.1702C9.35627 17.7958 9.79425 18.3039 10.3432 18.6058C10.5908 18.742 11.54 18.992 11.8038 18.8722C11.8236 18.8632 11.8247 18.8945 11.8226 18.9216C11.6205 21.4935 7.37429 19.8418 7.67523 18.0722L7.75751 17.5882L7.54567 17.7748C6.7865 18.5742 5.85995 19.176 4.71825 19.0723C4.66664 19.0677 4.61456 19.0615 4.56205 19.0539C4.57203 19.0321 4.58638 19.0122 4.59153 18.9895C4.85642 17.8209 5.24575 17.4048 6.66035 16.6031C6.66819 16.5986 6.27369 16.5545 5.90648 16.4316C5.59781 16.3282 5.3183 16.1675 5.15162 16.0601C3.48652 14.987 4.44776 13.2463 5.01016 13.0253C5.27845 12.92 5.52404 12.8706 5.68661 12.9424Z" fill="#DD2B1C"/>
<path d="M85.3475 11.7086V15.64H90.7353V18.5911C90.0223 19.1434 89.1734 19.6145 88.1774 19.9993C87.187 20.3837 86.1965 20.5786 85.2117 20.5786C83.2145 20.5786 81.6039 19.8853 80.3682 18.5044C79.1385 17.1236 78.5238 15.05 78.5238 12.2829C78.5238 9.72159 79.1331 7.78847 80.3466 6.48351C81.56 5.17827 83.1982 4.52849 85.2551 4.52849C86.6157 4.52849 87.7474 4.85896 88.6509 5.51946C89.5598 6.18539 90.1803 7.08975 90.5066 8.23248L95.2084 7.35513C94.7404 5.21099 93.6902 3.5378 92.063 2.31912C90.4303 1.10628 88.1612 0.499992 85.2606 0.499992C83.0295 0.499992 81.1684 0.884419 79.6664 1.65865C77.702 2.66577 76.211 4.11705 75.1877 6.00125C74.1699 7.8913 73.6587 10.0463 73.6587 12.4724C73.6587 14.7087 74.1157 16.7828 75.0301 18.6832C75.9443 20.584 77.31 22.0515 79.1223 23.0747C80.9399 24.0982 83.0677 24.6073 85.511 24.6073C87.4375 24.6073 89.3364 24.2445 91.2088 23.5189C93.0861 22.7879 94.517 21.9486 95.5021 20.9899V11.7086H85.3475Z" fill="#181818"/>
<path d="M56.2462 16.1923L51.6423 16.6472C51.9527 19.2408 52.8941 21.2176 54.4777 22.5711C56.0612 23.9302 58.3307 24.6073 61.2855 24.6073C63.3154 24.6073 65.0131 24.3258 66.3737 23.757C67.7339 23.1938 68.7844 22.3276 69.53 21.1632C70.2754 19.9993 70.6455 18.7483 70.6455 17.416C70.6455 15.949 70.3351 14.7141 69.715 13.7123C69.0945 12.7105 68.2348 11.9255 67.1354 11.3463C66.0416 10.7719 64.3493 10.2088 62.0581 9.67265C59.7671 9.13118 58.3252 8.61158 57.7319 8.10775C57.2638 7.71792 57.03 7.24686 57.03 6.69465C57.03 6.08796 57.2802 5.60612 57.7756 5.24333C58.5427 4.68012 59.6092 4.39858 60.9696 4.39858C62.2866 4.39858 63.2771 4.66395 63.9354 5.18938C64.5939 5.71428 65.0239 6.57561 65.2252 7.77772L69.9596 7.61509C69.8837 5.45437 69.1107 3.73264 67.6305 2.43855C66.1558 1.14432 63.9517 0.499992 61.0297 0.499992C59.2337 0.499992 57.7102 0.7708 56.4422 1.31186C55.1744 1.85347 54.2056 2.63884 53.5309 3.673C52.8616 4.70716 52.5241 5.82258 52.5241 7.00851C52.5241 8.85495 53.2372 10.4199 54.6681 11.7032C55.6858 12.6183 57.4543 13.3875 59.9738 14.0158C61.9332 14.503 63.1845 14.8384 63.7341 15.0337C64.5397 15.3153 65.1057 15.6509 65.4265 16.0352C65.7478 16.4254 65.9111 16.891 65.9111 17.4433C65.9111 18.2988 65.5245 19.046 64.7572 19.685C63.9901 20.3239 62.847 20.6437 61.3344 20.6437C59.9033 20.6437 58.7657 20.2863 57.9222 19.566C57.0789 18.8457 56.5238 17.7249 56.2462 16.1923Z" fill="#181818"/>
<path d="M29.0593 0.5V23.7627H33.794V16.7289L37.5978 12.8406L44.0299 23.7627H50.1356L40.8574 9.55933L49.6785 0.5H43.3335L33.794 10.8046V0.5H29.0593Z" fill="#181818"/>
<path d="M90.0056 36.36V28.1712H92.6486C93.2297 28.1712 93.7149 28.2831 94.1041 28.507C94.4959 28.7283 94.7905 29.0295 94.9877 29.4107C95.1876 29.7919 95.2876 30.2211 95.2876 30.6982C95.2876 31.1754 95.189 31.6059 94.9917 31.9897C94.7945 32.3709 94.5012 32.6735 94.1121 32.8974C93.7229 33.1186 93.2391 33.2292 92.6606 33.2292H90.5814V32.5575H92.6406C93.0698 32.5575 93.4256 32.4775 93.7082 32.3176C93.9908 32.155 94.2014 31.9337 94.34 31.6538C94.4812 31.3739 94.5519 31.0554 94.5519 30.6982C94.5519 30.341 94.4812 30.0225 94.34 29.7426C94.2014 29.4627 93.9894 29.2428 93.7042 29.0828C93.4216 28.9229 93.0631 28.8429 92.6286 28.8429H90.7533V36.36H90.0056Z" fill="#181818"/>
<path d="M87.0846 28.1712H87.8323V33.5931C87.8323 34.1502 87.7017 34.6487 87.4405 35.0885C87.1793 35.5257 86.8154 35.8709 86.3489 36.1241C85.8851 36.3747 85.3453 36.5 84.7295 36.5C84.1164 36.5 83.5766 36.3734 83.1101 36.1201C82.6437 35.8669 82.2798 35.5217 82.0186 35.0845C81.7573 34.6474 81.6267 34.1502 81.6267 33.5931V28.1712H82.3744V33.5411C82.3744 33.9756 82.4717 34.3635 82.6663 34.7047C82.8609 35.0432 83.1341 35.3098 83.486 35.5044C83.8405 35.699 84.255 35.7963 84.7295 35.7963C85.204 35.7963 85.6185 35.699 85.973 35.5044C86.3276 35.3098 86.6008 35.0432 86.7927 34.7047C86.9873 34.3635 87.0846 33.9756 87.0846 33.5411V28.1712Z" fill="#181818"/>
<path d="M79.8186 32.2656C79.8186 33.1186 79.6667 33.861 79.3628 34.4928C79.0589 35.1218 78.6404 35.6097 78.1072 35.9562C77.5768 36.3001 76.9664 36.472 76.276 36.472C75.5855 36.472 74.9738 36.3001 74.4407 35.9562C73.9102 35.6097 73.493 35.1218 73.1891 34.4928C72.8879 33.861 72.7373 33.1186 72.7373 32.2656C72.7373 31.4126 72.8879 30.6715 73.1891 30.0425C73.493 29.4107 73.9115 28.9229 74.4447 28.579C74.9778 28.2325 75.5882 28.0592 76.276 28.0592C76.9664 28.0592 77.5768 28.2325 78.1072 28.579C78.6404 28.9229 79.0589 29.4107 79.3628 30.0425C79.6667 30.6715 79.8186 31.4126 79.8186 32.2656ZM79.0909 32.2656C79.0909 31.5326 78.9683 30.9048 78.723 30.3823C78.4778 29.8572 78.1432 29.456 77.7194 29.1788C77.2956 28.9016 76.8144 28.7629 76.276 28.7629C75.7402 28.7629 75.2603 28.9016 74.8365 29.1788C74.4127 29.456 74.0768 29.8559 73.8289 30.3783C73.5836 30.9008 73.461 31.5299 73.461 32.2656C73.461 32.9987 73.5836 33.6264 73.8289 34.1489C74.0741 34.6714 74.4087 35.0725 74.8325 35.3524C75.2563 35.6297 75.7375 35.7683 76.276 35.7683C76.8144 35.7683 77.2956 35.6297 77.7194 35.3524C78.1459 35.0752 78.4818 34.6754 78.727 34.1529C78.9723 33.6278 79.0935 32.9987 79.0909 32.2656Z" fill="#181818"/>
<path d="M66.002 36.36V28.1712H68.6449C69.2261 28.1712 69.7112 28.2765 70.1004 28.4871C70.4922 28.695 70.7868 28.9842 70.9841 29.3547C71.184 29.7226 71.2839 30.1451 71.2839 30.6222C71.2839 31.0994 71.184 31.5206 70.9841 31.8858C70.7868 32.2509 70.4936 32.5362 70.1044 32.7414C69.7152 32.9467 69.2327 33.0493 68.6569 33.0493H66.4058V32.3656H68.6369C69.0634 32.3656 69.418 32.2949 69.7005 32.1537C69.9858 32.0124 70.1977 31.8111 70.3363 31.5499C70.4776 31.2886 70.5482 30.9794 70.5482 30.6222C70.5482 30.265 70.4776 29.9532 70.3363 29.6866C70.195 29.4174 69.9818 29.2094 69.6965 29.0628C69.414 28.9162 69.0568 28.8429 68.625 28.8429H66.7497V36.36H66.002ZM69.6126 32.6655L71.6278 36.36H70.7641L68.7689 32.6655H69.6126Z" fill="#181818"/>
<path d="M63.3218 30.7302C63.2471 30.4583 63.1378 30.2037 62.9939 29.9665C62.85 29.7266 62.6714 29.5173 62.4581 29.3387C62.2475 29.1575 62.0036 29.0162 61.7264 28.9149C61.4518 28.8136 61.1453 28.7629 60.8067 28.7629C60.2736 28.7629 59.7965 28.9016 59.3753 29.1788C58.9541 29.456 58.6209 29.8559 58.3757 30.3783C58.1331 30.9008 58.0118 31.5299 58.0118 32.2656C58.0118 32.9987 58.1344 33.6264 58.3797 34.1489C58.6249 34.6714 58.9608 35.0725 59.3873 35.3524C59.8165 35.6297 60.3069 35.7683 60.8587 35.7683C61.3625 35.7683 61.8077 35.6563 62.1942 35.4324C62.5807 35.2085 62.8819 34.8886 63.0979 34.4728C63.3164 34.0569 63.4231 33.5624 63.4177 32.9893L63.6577 33.0653H61.0347V32.3936H64.1455V33.0653C64.1455 33.7637 64.0042 34.3675 63.7216 34.8766C63.4391 35.3857 63.0512 35.7789 62.5581 36.0562C62.0649 36.3334 61.4985 36.472 60.8587 36.472C60.1443 36.472 59.5192 36.3001 58.9834 35.9562C58.4476 35.6097 58.0305 35.1218 57.7319 34.4928C57.436 33.861 57.2881 33.1186 57.2881 32.2656C57.2881 31.6232 57.3734 31.0434 57.544 30.5263C57.7146 30.0091 57.9558 29.5666 58.2677 29.1988C58.5823 28.8309 58.9541 28.5497 59.3833 28.3551C59.8125 28.1578 60.2869 28.0592 60.8067 28.0592C61.2546 28.0592 61.6637 28.1299 62.0343 28.2711C62.4075 28.4124 62.7353 28.607 63.0179 28.8549C63.3031 29.1001 63.5364 29.384 63.7176 29.7066C63.9016 30.0265 64.0255 30.3677 64.0895 30.7302H63.3218Z" fill="#181818"/>
<path d="M55.7204 31.9297V32.6015H52.3137V31.9297H55.7204Z" fill="#181818"/>
<path d="M45.2637 36.36V28.1712H48.0266C48.5597 28.1712 49.0036 28.2645 49.3581 28.4511C49.7153 28.6377 49.9832 28.8922 50.1618 29.2148C50.3404 29.5373 50.4297 29.9038 50.4297 30.3144C50.4297 30.6556 50.3724 30.9474 50.2578 31.19C50.1431 31.4326 49.9872 31.6285 49.7899 31.7778C49.5927 31.9271 49.3728 32.035 49.1302 32.1017V32.1656C49.3941 32.1843 49.65 32.2776 49.8979 32.4455C50.1458 32.6108 50.3497 32.8427 50.5097 33.1413C50.6696 33.4398 50.7496 33.797 50.7496 34.2129C50.7496 34.626 50.6576 34.9952 50.4737 35.3204C50.2897 35.643 50.0072 35.8976 49.626 36.0841C49.2475 36.2681 48.765 36.36 48.1786 36.36H45.2637ZM46.0114 35.6883H48.1786C48.8103 35.6883 49.2768 35.5484 49.578 35.2685C49.8819 34.9886 50.0338 34.6367 50.0338 34.2129C50.0338 33.901 49.9579 33.6184 49.8059 33.3652C49.6567 33.1093 49.4447 32.9067 49.1702 32.7574C48.8983 32.6081 48.5784 32.5335 48.2105 32.5335H46.0114V35.6883ZM46.0114 31.8698H48.0946C48.4171 31.8698 48.6997 31.8031 48.9423 31.6698C49.1848 31.5366 49.3741 31.3526 49.5101 31.118C49.646 30.8835 49.714 30.6156 49.714 30.3144C49.714 29.8799 49.5727 29.5267 49.2901 29.2548C49.0076 28.9802 48.5864 28.8429 48.0266 28.8429H46.0114V31.8698Z" fill="#181818"/>
<path d="M37.8865 36.36H37.1028L40.0816 28.1712H40.8813L43.8602 36.36H43.0765L40.5095 29.1428H40.4535L37.8865 36.36ZM38.4503 33.2212H42.5127V33.893H38.4503V33.2212Z" fill="#181818"/>
<path d="M35.6974 28.1712V36.36H34.9697L30.1315 29.5027H30.0675V36.36H29.3198V28.1712H30.0435L34.8977 35.0366H34.9617V28.1712H35.6974Z" fill="#181818"/>
<path d="M26.6849 30.2184C26.6395 29.7626 26.4383 29.4 26.0811 29.1308C25.7239 28.8616 25.2747 28.727 24.7336 28.727C24.3524 28.727 24.0165 28.7923 23.726 28.9229C23.4381 29.0535 23.2115 29.2348 23.0462 29.4667C22.8836 29.6959 22.8023 29.9572 22.8023 30.2504C22.8023 30.4663 22.849 30.6556 22.9423 30.8182C23.0356 30.9808 23.1609 31.1207 23.3181 31.238C23.4781 31.3526 23.654 31.4513 23.8459 31.5339C24.0405 31.6165 24.2365 31.6858 24.4337 31.7418L25.2974 31.9897C25.5586 32.0617 25.8199 32.1537 26.0811 32.2656C26.3423 32.3776 26.5809 32.5188 26.7968 32.6895C27.0154 32.8574 27.19 33.064 27.3206 33.3092C27.4539 33.5518 27.5205 33.8437 27.5205 34.1849C27.5205 34.622 27.4072 35.0152 27.1807 35.3644C26.9541 35.7136 26.6289 35.9909 26.205 36.1961C25.7812 36.3987 25.2734 36.5 24.6816 36.5C24.1245 36.5 23.6407 36.408 23.2302 36.2241C22.8197 36.0375 22.4971 35.7803 22.2625 35.4524C22.028 35.1245 21.896 34.7447 21.8667 34.3128H22.6344C22.6611 34.6354 22.7677 34.9086 22.9543 35.1325C23.1409 35.3564 23.3835 35.527 23.682 35.6443C23.9806 35.7589 24.3138 35.8163 24.6816 35.8163C25.0895 35.8163 25.452 35.7483 25.7692 35.6123C26.0891 35.4737 26.3397 35.2818 26.5209 35.0366C26.7049 34.7886 26.7968 34.5008 26.7968 34.1729C26.7968 33.8957 26.7248 33.6637 26.5809 33.4771C26.437 33.2879 26.2357 33.1293 25.9771 33.0013C25.7212 32.8734 25.424 32.7601 25.0855 32.6615L24.1058 32.3736C23.4634 32.1816 22.9649 31.9164 22.6104 31.5779C22.2559 31.2393 22.0786 30.8075 22.0786 30.2824C22.0786 29.8425 22.1959 29.456 22.4305 29.1228C22.6677 28.7869 22.9876 28.5257 23.3901 28.3391C23.7953 28.1499 24.2498 28.0552 24.7536 28.0552C25.2627 28.0552 25.7132 28.1485 26.1051 28.3351C26.4969 28.5217 26.8075 28.7789 27.0367 29.1068C27.2686 29.432 27.3926 29.8026 27.4086 30.2184H26.6849Z" fill="#181818"/>
<path d="M14.9542 36.36V35.7963L19.5004 28.8429H14.9302V28.1712H20.3921V28.735L15.8418 35.6883H20.4321V36.36H14.9542Z" fill="#181818"/>
<path d="M7.90089 36.36H7.11719L10.096 28.1712H10.8957L13.8746 36.36H13.0909L10.5239 29.1428H10.4679L7.90089 36.36ZM8.46467 33.2212H12.5271V33.893H8.46467V33.2212Z" fill="#181818"/>
<path d="M0.675781 36.36V28.1712H1.4235V32.5815H1.49547L5.49394 28.1712H6.47756L2.9789 31.9577L6.46157 36.36H5.54992L2.51508 32.4775L1.4235 33.7011V36.36H0.675781Z" fill="#181818"/>
</svg>
